<mxfile host="app.diagrams.net" modified="2022-11-22T09:04:40.852Z" agent="5.0 (Windows NT 10.0; Win64; x64) AppleWebKit/537.36 (KHTML, like Gecko) Chrome/107.0.0.0 Safari/537.36" etag="ZB2gCAN46BPpjxfbIroi" version="20.5.1" type="github">
  <diagram id="kgpKYQtTHZ0yAKxKKP6v" name="Page-1">
    <mxGraphModel dx="1662" dy="762" grid="1" gridSize="10" guides="1" tooltips="1" connect="1" arrows="1" fold="1" page="1" pageScale="1" pageWidth="850" pageHeight="1100" math="0" shadow="0">
      <root>
        <mxCell id="0" />
        <mxCell id="1" parent="0" />
        <mxCell id="wglulsc01303XSao3uGZ-1" value="사용자" style="rounded=1;whiteSpace=wrap;html=1;fillColor=#99CCFF;arcSize=7;" vertex="1" parent="1">
          <mxGeometry x="101" y="173" width="90" height="30" as="geometry" />
        </mxCell>
        <mxCell id="wglulsc01303XSao3uGZ-2" value="로그인" style="rounded=0;whiteSpace=wrap;html=1;fillColor=#FFFFCC;" vertex="1" parent="1">
          <mxGeometry x="241" y="571" width="90" height="30" as="geometry" />
        </mxCell>
        <mxCell id="wglulsc01303XSao3uGZ-3" value="회원가입" style="rounded=0;whiteSpace=wrap;html=1;fillColor=#FFFFCC;" vertex="1" parent="1">
          <mxGeometry x="241" y="615" width="90" height="30" as="geometry" />
        </mxCell>
        <mxCell id="wglulsc01303XSao3uGZ-4" value="관광안내" style="rounded=0;whiteSpace=wrap;html=1;fillColor=#FFFFCC;" vertex="1" parent="1">
          <mxGeometry x="351" y="73" width="90" height="30" as="geometry" />
        </mxCell>
        <mxCell id="wglulsc01303XSao3uGZ-5" value="관광명소" style="rounded=0;whiteSpace=wrap;html=1;fillColor=#FFFFCC;" vertex="1" parent="1">
          <mxGeometry x="351" y="180" width="90" height="30" as="geometry" />
        </mxCell>
        <mxCell id="wglulsc01303XSao3uGZ-6" value="쇼핑" style="rounded=0;whiteSpace=wrap;html=1;fillColor=#FFFFCC;" vertex="1" parent="1">
          <mxGeometry x="351" y="303" width="90" height="30" as="geometry" />
        </mxCell>
        <mxCell id="wglulsc01303XSao3uGZ-7" value="음식" style="rounded=0;whiteSpace=wrap;html=1;fillColor=#FFFFCC;" vertex="1" parent="1">
          <mxGeometry x="351" y="410" width="90" height="30" as="geometry" />
        </mxCell>
        <mxCell id="wglulsc01303XSao3uGZ-8" value="역사" style="rounded=0;whiteSpace=wrap;html=1;fillColor=#FFFFCC;" vertex="1" parent="1">
          <mxGeometry x="351" y="521" width="90" height="30" as="geometry" />
        </mxCell>
        <mxCell id="wglulsc01303XSao3uGZ-9" value="" style="endArrow=classic;html=1;rounded=0;exitX=1;exitY=0.5;exitDx=0;exitDy=0;" edge="1" parent="1" source="wglulsc01303XSao3uGZ-1" target="wglulsc01303XSao3uGZ-2">
          <mxGeometry width="50" height="50" relative="1" as="geometry">
            <mxPoint x="491" y="473" as="sourcePoint" />
            <mxPoint x="251" y="253" as="targetPoint" />
            <Array as="points">
              <mxPoint x="211" y="188" />
              <mxPoint x="211" y="586" />
            </Array>
          </mxGeometry>
        </mxCell>
        <mxCell id="wglulsc01303XSao3uGZ-10" value="" style="endArrow=classic;html=1;rounded=0;entryX=0;entryY=0.5;entryDx=0;entryDy=0;" edge="1" parent="1">
          <mxGeometry width="50" height="50" relative="1" as="geometry">
            <mxPoint x="211" y="303" as="sourcePoint" />
            <mxPoint x="242" y="630" as="targetPoint" />
            <Array as="points">
              <mxPoint x="211" y="630" />
            </Array>
          </mxGeometry>
        </mxCell>
        <mxCell id="wglulsc01303XSao3uGZ-11" value="" style="endArrow=classic;html=1;rounded=0;exitX=0.5;exitY=0;exitDx=0;exitDy=0;entryX=0.5;entryY=1;entryDx=0;entryDy=0;" edge="1" parent="1" source="wglulsc01303XSao3uGZ-3" target="wglulsc01303XSao3uGZ-2">
          <mxGeometry width="50" height="50" relative="1" as="geometry">
            <mxPoint x="491" y="755" as="sourcePoint" />
            <mxPoint x="541" y="705" as="targetPoint" />
          </mxGeometry>
        </mxCell>
        <mxCell id="wglulsc01303XSao3uGZ-12" value="" style="endArrow=classic;html=1;rounded=0;exitX=0.5;exitY=0;exitDx=0;exitDy=0;entryX=0;entryY=0.5;entryDx=0;entryDy=0;" edge="1" parent="1" source="wglulsc01303XSao3uGZ-2" target="wglulsc01303XSao3uGZ-4">
          <mxGeometry width="50" height="50" relative="1" as="geometry">
            <mxPoint x="491" y="473" as="sourcePoint" />
            <mxPoint x="281" y="63" as="targetPoint" />
            <Array as="points">
              <mxPoint x="286" y="88" />
            </Array>
          </mxGeometry>
        </mxCell>
        <mxCell id="wglulsc01303XSao3uGZ-13" value="" style="endArrow=none;html=1;rounded=0;" edge="1" parent="1">
          <mxGeometry width="50" height="50" relative="1" as="geometry">
            <mxPoint x="206" y="188" as="sourcePoint" />
            <mxPoint x="286" y="188" as="targetPoint" />
          </mxGeometry>
        </mxCell>
        <mxCell id="wglulsc01303XSao3uGZ-14" value="" style="endArrow=classic;html=1;rounded=0;entryX=0;entryY=0.5;entryDx=0;entryDy=0;" edge="1" parent="1">
          <mxGeometry width="50" height="50" relative="1" as="geometry">
            <mxPoint x="286" y="196" as="sourcePoint" />
            <mxPoint x="356" y="196" as="targetPoint" />
          </mxGeometry>
        </mxCell>
        <mxCell id="wglulsc01303XSao3uGZ-15" value="" style="endArrow=classic;html=1;rounded=0;entryX=0;entryY=0.5;entryDx=0;entryDy=0;" edge="1" parent="1">
          <mxGeometry width="50" height="50" relative="1" as="geometry">
            <mxPoint x="286" y="320" as="sourcePoint" />
            <mxPoint x="356" y="320" as="targetPoint" />
          </mxGeometry>
        </mxCell>
        <mxCell id="wglulsc01303XSao3uGZ-16" value="" style="endArrow=classic;html=1;rounded=0;entryX=0;entryY=0.5;entryDx=0;entryDy=0;" edge="1" parent="1">
          <mxGeometry width="50" height="50" relative="1" as="geometry">
            <mxPoint x="287" y="427" as="sourcePoint" />
            <mxPoint x="357" y="427" as="targetPoint" />
          </mxGeometry>
        </mxCell>
        <mxCell id="wglulsc01303XSao3uGZ-17" value="" style="endArrow=classic;html=1;rounded=0;entryX=0;entryY=0.5;entryDx=0;entryDy=0;" edge="1" parent="1">
          <mxGeometry width="50" height="50" relative="1" as="geometry">
            <mxPoint x="287" y="535" as="sourcePoint" />
            <mxPoint x="357" y="535" as="targetPoint" />
          </mxGeometry>
        </mxCell>
        <mxCell id="wglulsc01303XSao3uGZ-18" value="공지사항" style="rounded=0;whiteSpace=wrap;html=1;fillColor=#B9E0A5;" vertex="1" parent="1">
          <mxGeometry x="471" y="53" width="90" height="30" as="geometry" />
        </mxCell>
        <mxCell id="wglulsc01303XSao3uGZ-19" value="마포관광동영상" style="rounded=0;whiteSpace=wrap;html=1;fillColor=#B9E0A5;" vertex="1" parent="1">
          <mxGeometry x="471" y="88" width="90" height="30" as="geometry" />
        </mxCell>
        <mxCell id="wglulsc01303XSao3uGZ-20" value="관광정보사이트" style="rounded=0;whiteSpace=wrap;html=1;fillColor=#B9E0A5;" vertex="1" parent="1">
          <mxGeometry x="471" y="123" width="90" height="30" as="geometry" />
        </mxCell>
        <mxCell id="wglulsc01303XSao3uGZ-21" value="공지사항 상세" style="rounded=0;whiteSpace=wrap;html=1;fillColor=#F8CECC;" vertex="1" parent="1">
          <mxGeometry x="578" y="53" width="90" height="30" as="geometry" />
        </mxCell>
        <mxCell id="wglulsc01303XSao3uGZ-24" value="자연속힐링" style="rounded=0;whiteSpace=wrap;html=1;fillColor=#B9E0A5;" vertex="1" parent="1">
          <mxGeometry x="471" y="163" width="90" height="30" as="geometry" />
        </mxCell>
        <mxCell id="wglulsc01303XSao3uGZ-25" value="체험관/전시장" style="rounded=0;whiteSpace=wrap;html=1;fillColor=#B9E0A5;" vertex="1" parent="1">
          <mxGeometry x="471" y="198" width="90" height="30" as="geometry" />
        </mxCell>
        <mxCell id="wglulsc01303XSao3uGZ-26" value="공연장" style="rounded=0;whiteSpace=wrap;html=1;fillColor=#B9E0A5;" vertex="1" parent="1">
          <mxGeometry x="471" y="233" width="90" height="30" as="geometry" />
        </mxCell>
        <mxCell id="wglulsc01303XSao3uGZ-27" value="자연속힐링 상세" style="rounded=0;whiteSpace=wrap;html=1;fillColor=#F8CECC;" vertex="1" parent="1">
          <mxGeometry x="576" y="163" width="90" height="30" as="geometry" />
        </mxCell>
        <mxCell id="wglulsc01303XSao3uGZ-28" value="쇼핑몰" style="rounded=0;whiteSpace=wrap;html=1;fillColor=#B9E0A5;" vertex="1" parent="1">
          <mxGeometry x="471" y="282" width="90" height="30" as="geometry" />
        </mxCell>
        <mxCell id="wglulsc01303XSao3uGZ-29" value="전통시장" style="rounded=0;whiteSpace=wrap;html=1;fillColor=#B9E0A5;" vertex="1" parent="1">
          <mxGeometry x="471" y="317" width="90" height="30" as="geometry" />
        </mxCell>
        <mxCell id="wglulsc01303XSao3uGZ-31" value="쇼핑몰 상세" style="rounded=0;whiteSpace=wrap;html=1;fillColor=#FFFFFF;" vertex="1" parent="1">
          <mxGeometry x="571" y="282" width="90" height="30" as="geometry" />
        </mxCell>
        <mxCell id="wglulsc01303XSao3uGZ-32" value="모범음식점" style="rounded=0;whiteSpace=wrap;html=1;fillColor=#B9E0A5;" vertex="1" parent="1">
          <mxGeometry x="471" y="391" width="90" height="30" as="geometry" />
        </mxCell>
        <mxCell id="wglulsc01303XSao3uGZ-33" value="관광식당" style="rounded=0;whiteSpace=wrap;html=1;fillColor=#B9E0A5;" vertex="1" parent="1">
          <mxGeometry x="471" y="426" width="90" height="30" as="geometry" />
        </mxCell>
        <mxCell id="wglulsc01303XSao3uGZ-34" value="안심식당" style="rounded=0;whiteSpace=wrap;html=1;fillColor=#B9E0A5;" vertex="1" parent="1">
          <mxGeometry x="471" y="461" width="90" height="30" as="geometry" />
        </mxCell>
        <mxCell id="wglulsc01303XSao3uGZ-36" value="마포의 역사" style="rounded=0;whiteSpace=wrap;html=1;fillColor=#B9E0A5;" vertex="1" parent="1">
          <mxGeometry x="471" y="501" width="90" height="30" as="geometry" />
        </mxCell>
        <mxCell id="wglulsc01303XSao3uGZ-37" value="동이름의 유래" style="rounded=0;whiteSpace=wrap;html=1;fillColor=#B9E0A5;" vertex="1" parent="1">
          <mxGeometry x="471" y="536" width="90" height="30" as="geometry" />
        </mxCell>
        <mxCell id="wglulsc01303XSao3uGZ-38" value="동네에서 전해져 온 설화" style="rounded=0;whiteSpace=wrap;html=1;fillColor=#B9E0A5;" vertex="1" parent="1">
          <mxGeometry x="471" y="571" width="90" height="30" as="geometry" />
        </mxCell>
        <mxCell id="wglulsc01303XSao3uGZ-40" value="전통시장 상세" style="rounded=0;whiteSpace=wrap;html=1;fillColor=#F8CECC;" vertex="1" parent="1">
          <mxGeometry x="576" y="317" width="90" height="30" as="geometry" />
        </mxCell>
        <mxCell id="wglulsc01303XSao3uGZ-41" value="체험관/전시장 상세" style="rounded=0;whiteSpace=wrap;html=1;fillColor=#F8CECC;" vertex="1" parent="1">
          <mxGeometry x="575" y="198" width="90" height="30" as="geometry" />
        </mxCell>
        <mxCell id="wglulsc01303XSao3uGZ-42" value="공연장 상세" style="rounded=0;whiteSpace=wrap;html=1;fillColor=#F8CECC;" vertex="1" parent="1">
          <mxGeometry x="575" y="233" width="90" height="30" as="geometry" />
        </mxCell>
        <mxCell id="wglulsc01303XSao3uGZ-45" value="" style="endArrow=none;html=1;rounded=0;exitX=1;exitY=0.5;exitDx=0;exitDy=0;" edge="1" parent="1" source="wglulsc01303XSao3uGZ-4">
          <mxGeometry width="50" height="50" relative="1" as="geometry">
            <mxPoint x="491" y="363" as="sourcePoint" />
            <mxPoint x="451" y="88" as="targetPoint" />
          </mxGeometry>
        </mxCell>
        <mxCell id="wglulsc01303XSao3uGZ-47" value="" style="endArrow=none;html=1;rounded=0;" edge="1" parent="1">
          <mxGeometry width="50" height="50" relative="1" as="geometry">
            <mxPoint x="451" y="63" as="sourcePoint" />
            <mxPoint x="451" y="143" as="targetPoint" />
          </mxGeometry>
        </mxCell>
        <mxCell id="wglulsc01303XSao3uGZ-48" value="" style="endArrow=classic;html=1;rounded=0;" edge="1" parent="1">
          <mxGeometry width="50" height="50" relative="1" as="geometry">
            <mxPoint x="451" y="63" as="sourcePoint" />
            <mxPoint x="471" y="63" as="targetPoint" />
          </mxGeometry>
        </mxCell>
        <mxCell id="wglulsc01303XSao3uGZ-49" value="" style="endArrow=classic;html=1;rounded=0;" edge="1" parent="1">
          <mxGeometry width="50" height="50" relative="1" as="geometry">
            <mxPoint x="452" y="103" as="sourcePoint" />
            <mxPoint x="472" y="103" as="targetPoint" />
          </mxGeometry>
        </mxCell>
        <mxCell id="wglulsc01303XSao3uGZ-50" value="" style="endArrow=classic;html=1;rounded=0;" edge="1" parent="1">
          <mxGeometry width="50" height="50" relative="1" as="geometry">
            <mxPoint x="451" y="143" as="sourcePoint" />
            <mxPoint x="471" y="143" as="targetPoint" />
          </mxGeometry>
        </mxCell>
        <mxCell id="wglulsc01303XSao3uGZ-51" value="" style="endArrow=none;html=1;rounded=0;exitX=1;exitY=0.5;exitDx=0;exitDy=0;" edge="1" parent="1">
          <mxGeometry width="50" height="50" relative="1" as="geometry">
            <mxPoint x="441" y="199" as="sourcePoint" />
            <mxPoint x="451" y="199" as="targetPoint" />
          </mxGeometry>
        </mxCell>
        <mxCell id="wglulsc01303XSao3uGZ-52" value="" style="endArrow=none;html=1;rounded=0;" edge="1" parent="1">
          <mxGeometry width="50" height="50" relative="1" as="geometry">
            <mxPoint x="451" y="174" as="sourcePoint" />
            <mxPoint x="451" y="254" as="targetPoint" />
          </mxGeometry>
        </mxCell>
        <mxCell id="wglulsc01303XSao3uGZ-53" value="" style="endArrow=classic;html=1;rounded=0;" edge="1" parent="1">
          <mxGeometry width="50" height="50" relative="1" as="geometry">
            <mxPoint x="451" y="174" as="sourcePoint" />
            <mxPoint x="471" y="174" as="targetPoint" />
          </mxGeometry>
        </mxCell>
        <mxCell id="wglulsc01303XSao3uGZ-54" value="" style="endArrow=classic;html=1;rounded=0;" edge="1" parent="1">
          <mxGeometry width="50" height="50" relative="1" as="geometry">
            <mxPoint x="452" y="214" as="sourcePoint" />
            <mxPoint x="472" y="214" as="targetPoint" />
          </mxGeometry>
        </mxCell>
        <mxCell id="wglulsc01303XSao3uGZ-55" value="" style="endArrow=classic;html=1;rounded=0;" edge="1" parent="1">
          <mxGeometry width="50" height="50" relative="1" as="geometry">
            <mxPoint x="451" y="254" as="sourcePoint" />
            <mxPoint x="471" y="254" as="targetPoint" />
          </mxGeometry>
        </mxCell>
        <mxCell id="wglulsc01303XSao3uGZ-57" value="" style="endArrow=none;html=1;rounded=0;" edge="1" parent="1">
          <mxGeometry width="50" height="50" relative="1" as="geometry">
            <mxPoint x="451" y="294" as="sourcePoint" />
            <mxPoint x="451" y="333" as="targetPoint" />
          </mxGeometry>
        </mxCell>
        <mxCell id="wglulsc01303XSao3uGZ-58" value="" style="endArrow=classic;html=1;rounded=0;" edge="1" parent="1">
          <mxGeometry width="50" height="50" relative="1" as="geometry">
            <mxPoint x="451" y="294" as="sourcePoint" />
            <mxPoint x="471" y="294" as="targetPoint" />
          </mxGeometry>
        </mxCell>
        <mxCell id="wglulsc01303XSao3uGZ-59" value="" style="endArrow=classic;html=1;rounded=0;" edge="1" parent="1">
          <mxGeometry width="50" height="50" relative="1" as="geometry">
            <mxPoint x="452" y="332" as="sourcePoint" />
            <mxPoint x="472" y="332" as="targetPoint" />
          </mxGeometry>
        </mxCell>
        <mxCell id="wglulsc01303XSao3uGZ-61" value="" style="endArrow=none;html=1;rounded=0;exitX=1;exitY=0.5;exitDx=0;exitDy=0;" edge="1" parent="1">
          <mxGeometry width="50" height="50" relative="1" as="geometry">
            <mxPoint x="440" y="426" as="sourcePoint" />
            <mxPoint x="450" y="426" as="targetPoint" />
          </mxGeometry>
        </mxCell>
        <mxCell id="wglulsc01303XSao3uGZ-62" value="" style="endArrow=none;html=1;rounded=0;" edge="1" parent="1">
          <mxGeometry width="50" height="50" relative="1" as="geometry">
            <mxPoint x="450" y="401" as="sourcePoint" />
            <mxPoint x="450" y="481" as="targetPoint" />
          </mxGeometry>
        </mxCell>
        <mxCell id="wglulsc01303XSao3uGZ-63" value="" style="endArrow=classic;html=1;rounded=0;" edge="1" parent="1">
          <mxGeometry width="50" height="50" relative="1" as="geometry">
            <mxPoint x="450" y="401" as="sourcePoint" />
            <mxPoint x="470" y="401" as="targetPoint" />
          </mxGeometry>
        </mxCell>
        <mxCell id="wglulsc01303XSao3uGZ-64" value="" style="endArrow=classic;html=1;rounded=0;" edge="1" parent="1">
          <mxGeometry width="50" height="50" relative="1" as="geometry">
            <mxPoint x="451" y="441" as="sourcePoint" />
            <mxPoint x="471" y="441" as="targetPoint" />
          </mxGeometry>
        </mxCell>
        <mxCell id="wglulsc01303XSao3uGZ-65" value="" style="endArrow=classic;html=1;rounded=0;" edge="1" parent="1">
          <mxGeometry width="50" height="50" relative="1" as="geometry">
            <mxPoint x="450" y="481" as="sourcePoint" />
            <mxPoint x="470" y="481" as="targetPoint" />
          </mxGeometry>
        </mxCell>
        <mxCell id="wglulsc01303XSao3uGZ-66" value="" style="endArrow=none;html=1;rounded=0;exitX=1;exitY=0.5;exitDx=0;exitDy=0;" edge="1" parent="1">
          <mxGeometry width="50" height="50" relative="1" as="geometry">
            <mxPoint x="441" y="539" as="sourcePoint" />
            <mxPoint x="451" y="539" as="targetPoint" />
          </mxGeometry>
        </mxCell>
        <mxCell id="wglulsc01303XSao3uGZ-67" value="" style="endArrow=none;html=1;rounded=0;" edge="1" parent="1">
          <mxGeometry width="50" height="50" relative="1" as="geometry">
            <mxPoint x="451" y="514" as="sourcePoint" />
            <mxPoint x="451" y="594" as="targetPoint" />
          </mxGeometry>
        </mxCell>
        <mxCell id="wglulsc01303XSao3uGZ-68" value="" style="endArrow=classic;html=1;rounded=0;" edge="1" parent="1">
          <mxGeometry width="50" height="50" relative="1" as="geometry">
            <mxPoint x="451" y="514" as="sourcePoint" />
            <mxPoint x="471" y="514" as="targetPoint" />
          </mxGeometry>
        </mxCell>
        <mxCell id="wglulsc01303XSao3uGZ-69" value="" style="endArrow=classic;html=1;rounded=0;" edge="1" parent="1">
          <mxGeometry width="50" height="50" relative="1" as="geometry">
            <mxPoint x="452" y="554" as="sourcePoint" />
            <mxPoint x="472" y="554" as="targetPoint" />
          </mxGeometry>
        </mxCell>
        <mxCell id="wglulsc01303XSao3uGZ-70" value="" style="endArrow=classic;html=1;rounded=0;" edge="1" parent="1">
          <mxGeometry width="50" height="50" relative="1" as="geometry">
            <mxPoint x="451" y="594" as="sourcePoint" />
            <mxPoint x="471" y="594" as="targetPoint" />
          </mxGeometry>
        </mxCell>
        <mxCell id="wglulsc01303XSao3uGZ-71" value="" style="endArrow=classic;html=1;rounded=0;" edge="1" parent="1">
          <mxGeometry width="50" height="50" relative="1" as="geometry">
            <mxPoint x="560" y="68" as="sourcePoint" />
            <mxPoint x="580" y="68" as="targetPoint" />
          </mxGeometry>
        </mxCell>
        <mxCell id="wglulsc01303XSao3uGZ-72" value="" style="endArrow=classic;html=1;rounded=0;" edge="1" parent="1">
          <mxGeometry width="50" height="50" relative="1" as="geometry">
            <mxPoint x="561" y="178" as="sourcePoint" />
            <mxPoint x="577" y="178" as="targetPoint" />
          </mxGeometry>
        </mxCell>
        <mxCell id="wglulsc01303XSao3uGZ-73" value="" style="endArrow=classic;html=1;rounded=0;" edge="1" parent="1">
          <mxGeometry width="50" height="50" relative="1" as="geometry">
            <mxPoint x="560" y="213" as="sourcePoint" />
            <mxPoint x="576" y="213" as="targetPoint" />
          </mxGeometry>
        </mxCell>
        <mxCell id="wglulsc01303XSao3uGZ-74" value="" style="endArrow=classic;html=1;rounded=0;" edge="1" parent="1">
          <mxGeometry width="50" height="50" relative="1" as="geometry">
            <mxPoint x="560" y="248" as="sourcePoint" />
            <mxPoint x="576" y="248" as="targetPoint" />
          </mxGeometry>
        </mxCell>
        <mxCell id="wglulsc01303XSao3uGZ-75" value="" style="endArrow=classic;html=1;rounded=0;" edge="1" parent="1">
          <mxGeometry width="50" height="50" relative="1" as="geometry">
            <mxPoint x="562" y="296" as="sourcePoint" />
            <mxPoint x="578" y="296" as="targetPoint" />
          </mxGeometry>
        </mxCell>
        <mxCell id="wglulsc01303XSao3uGZ-77" value="" style="endArrow=classic;html=1;rounded=0;" edge="1" parent="1">
          <mxGeometry width="50" height="50" relative="1" as="geometry">
            <mxPoint x="561" y="331" as="sourcePoint" />
            <mxPoint x="577" y="331" as="targetPoint" />
          </mxGeometry>
        </mxCell>
        <mxCell id="wglulsc01303XSao3uGZ-78" value="회원정보" style="rounded=0;whiteSpace=wrap;html=1;fillColor=#B9E0A5;" vertex="1" parent="1">
          <mxGeometry x="346" y="571" width="90" height="30" as="geometry" />
        </mxCell>
        <mxCell id="wglulsc01303XSao3uGZ-79" value="" style="endArrow=classic;html=1;rounded=0;" edge="1" parent="1">
          <mxGeometry width="50" height="50" relative="1" as="geometry">
            <mxPoint x="331" y="588" as="sourcePoint" />
            <mxPoint x="347" y="588" as="targetPoint" />
          </mxGeometry>
        </mxCell>
        <mxCell id="wglulsc01303XSao3uGZ-80" value="쇼핑몰 상세" style="whiteSpace=wrap;html=1;fillColor=#F8CECC;" vertex="1" parent="1">
          <mxGeometry x="571" y="282" width="90" height="30" as="geometry" />
        </mxCell>
        <mxCell id="wglulsc01303XSao3uGZ-82" value="" style="endArrow=none;html=1;rounded=0;exitX=1;exitY=0.5;exitDx=0;exitDy=0;" edge="1" parent="1">
          <mxGeometry width="50" height="50" relative="1" as="geometry">
            <mxPoint x="441" y="315" as="sourcePoint" />
            <mxPoint x="451" y="315" as="targetPoint" />
          </mxGeometry>
        </mxCell>
        <mxCell id="wglulsc01303XSao3uGZ-83" value="" style="endArrow=classic;html=1;rounded=0;" edge="1" parent="1">
          <mxGeometry width="50" height="50" relative="1" as="geometry">
            <mxPoint x="561" y="296" as="sourcePoint" />
            <mxPoint x="577" y="296" as="targetPoint" />
          </mxGeometry>
        </mxCell>
      </root>
    </mxGraphModel>
  </diagram>
</mxfile>
